<svg xmlns="http://www.w3.org/2000/svg" version="1.1" xmlns:xlink="http://www.w3.org/1999/xlink" xmlns:svgjs="http://svgjs.dev/svgjs" viewBox="0 0 800 800"><defs><linearGradient x1="50%" y1="0%" x2="50%" y2="100%" id="uundulate-grad"><stop stop-color="hsl(37, 99%, 67%)" stop-opacity="1" offset="45%"></stop><stop stop-color="hsl(316, 73%, 52%)" stop-opacity="1" offset="100%"></stop></linearGradient></defs><g stroke-width="1" stroke="#6b2e1f" fill="none"><path d="M647.9784092195601 394.15338975359566C648.9328425582119 475.19843874688456 618.2360795724838 541.198662305052 555.6404686933148 592.6865289144401C493.04485781414576 644.1743955238283 425.9216866585473 658.6357195097851 347.5194769995485 641.2951494786596C269.11726734054963 623.9545794475341 214.87785303465046 581.4415134594569 179.30986233011947 509.45179276503836C143.74187162558854 437.4620720706198 142.93034523059384 368.5518676821272 176.793121617799 295.74449014545075C210.65589800500413 222.93711260877444 263.87909168662236 179.15850483874044 341.85118898870314 159.97638058899082C419.8232862907839 140.7942563392412 487.28268445302535 154.8834168373612 551.0591886677871 203.67029374665373C614.8356928825488 252.45717065594624 647.0239758809084 313.10834076030676 647.9784092195601 394.15338975359566C648.9328425582119 475.19843874688456 618.2360795724838 541.198662305052 555.6404686933148 592.6865289144401 "></path><path d="M639.9791037274725 394.3420063273519C640.9027488939096 472.7726989015025 611.1962040690116 536.6438829900516 550.6198064440093 586.4708506765562C490.043408819007 636.297818363061 425.0855012490729 650.29264802689 349.21239512746115 633.511451222575C273.3392890058494 616.7302544182601 220.84953322594697 575.5885776556047 186.42889706027188 505.92110601584477C152.0082608945968 436.25363437608485 151.22291277040836 369.5663398065759 183.99334153221974 299.10758735172783C216.7637702940312 228.64883489687975 268.2700867601134 186.28244028071782 343.72695511696577 167.719094232573C419.18382347381817 149.1557481844282 484.4671120179228 162.7904196342218 546.1863096451114 210.0035263206339C607.9055072723002 257.216633007046 639.0554585610355 315.9113137532013 639.9791037274725 394.3420063273519C640.9027488939096 472.7726989015025 611.1962040690116 536.6438829900516 550.6198064440093 586.4708506765562 "></path><path d="M631.9797982353849 394.53059238353C632.8726552296074 470.3469285385422 604.1563285655393 532.089073157473 545.5991441947037 580.2551419210943C487.0419598238682 628.4212106847153 424.2493158395987 641.9495460264168 350.9053132553739 625.7277224489123C277.5613106711493 609.5058988714079 226.82121341724354 569.7356113341743 193.5479317904243 502.39038874907305C160.27465016360497 435.0451661639719 159.51548031022287 370.58078141344663 191.19356144664056 302.4706540404268C222.8716425830583 234.36052666740693 272.6610818336044 193.40634520511708 345.6027212452284 175.46177735857708C418.5443606568523 157.51720951203714 481.6515395828201 170.69739191350425 541.3134306224358 216.33672837703597C600.9753216620516 261.9760648405677 631.0869412411623 318.7142562285178 631.9797982353849 394.53059238353C632.8726552296074 470.3469285385422 604.1563285655393 532.089073157473 545.5991441947037 580.2551419210943 "></path><path d="M623.9805232608753 394.71920895728624C624.8425920828834 467.92118869316005 597.1164835796452 527.5342938424726 540.5785124629764 574.0394636832102C484.0405413463076 620.544633523948 423.4131609477024 633.6064745435218 352.5982619008648 617.9440241928278C281.7833628540272 602.2815738421339 232.79292412611824 563.8826755303222 200.66699703815482 498.8597019998797C168.54106995019134 433.83672846943705 167.8080783676155 371.59525353789536 198.3938118786395 305.8337512467038C228.97954538966349 240.07224895551224 277.0521074246735 200.5302806470944 347.47851789106903 183.20449100215927C417.90492835746454 165.87870135722414 478.8359976652955 178.60439471036483 536.4405821173384 222.66996095101615C594.0451665693812 266.7355271916674 623.1184544388675 321.51722922141244 623.9805232608753 394.71920895728624C624.8425920828834 467.92118869316005 597.1164835796452 527.5342938424726 540.5785124629764 574.0394636832102 "></path><path d="M615.9811872512096 394.90779501346435C616.812467901003 465.49541833019975 590.0765775585949 522.979484009894 535.5578196960928 567.8237549277483C481.0390618335906 612.6680258456024 422.5769450206501 625.2633725430487 354.2911495111995 610.1602954191652C286.00535400174886 595.0572182952817 238.76457379983668 558.029709208892 207.78600125072904 495.328984733108C176.80742870162146 432.628260257324 176.1006153898519 372.60969514476596 205.59400127548219 309.1968179354027C235.08738716111247 245.78394072603942 281.4430719805864 207.65418557149366 349.35425350175353 190.94717412816334C417.26543502292066 174.24016268483302 476.0203947126148 186.51136698964729 531.5676725770847 229.00316300741815C587.1149504415546 271.4949590251891 615.1499066014162 324.32017169672883 615.9811872512096 394.90779501346435C616.812467901003 465.49541833019975 590.0765775585949 522.979484009894 535.5578196960928 567.8237549277483 "></path><path d="M607.981881759122 395.09638106964246C608.7823742367009 463.0696479672396 583.0367020551225 518.4246741773154 530.5371574467872 561.6080461722862C478.0376128384519 604.7914181672569 421.7407596111757 616.9202705425755 355.98406763911225 602.3765666455026C290.2273756670487 587.8328627484295 244.7362539911332 552.1767428874616 214.90503598088145 491.79826746633626C185.0738179706297 431.419792045211 184.3931829296664 373.62413675163657 212.79422118990294 312.55988462410164C241.19525945013953 251.4956324965666 285.8340670540774 214.7780904958929 351.23001963001616 198.68985725416746C416.6259722059549 182.60162401244196 473.2048222775122 194.41833926892974 526.694793554409 235.3363650638202C580.184764831306 276.25439085871074 607.1813892815433 327.12311417204535 607.981881759122 395.09638106964246C608.7823742367009 463.0696479672396 583.0367020551225 518.4246741773154 530.5371574467872 561.6080461722862 "></path><path d="M599.9825762670343 395.28501290218776C600.7522805723986 460.6439233806466 575.9968265516502 513.8699101211041 525.5164951974816 555.3923831931913C475.03616384331303 596.9148562652786 420.9045742017014 608.5772143184695 357.6769857670249 594.5928836482071C294.4493973323485 580.6085529779446 250.70793418242977 546.3238223423984 222.02407071103386 488.26759597593184C193.34020723963795 430.21136960946524 192.68575046948092 374.6386241348745 219.99444110432376 315.9229970891677C247.30313173916664 257.20737004346097 290.22506212756844 221.90204119665935 353.10578575827867 206.43258615653872C415.986509388989 190.96313111641803 470.3892498424095 202.3253573245794 521.8219145317335 241.66961289658946C573.2545792210574 281.0138684685995 599.2128719616701 329.92610242372893 599.9825762670343 395.28501290218776C600.7522805723986 460.6439233806466 575.9968265516502 513.8699101211041 525.5164951974816 555.3923831931913 "></path><path d="M591.9832707749467 395.47359895836587C592.7221869080964 458.2181530176863 568.9569510481781 509.3151002885256 520.4958329481761 549.1766744377294C472.0347148481743 589.038248586933 420.0683887922271 600.2341123179964 359.3699038949377 586.8091548745444C298.6714189976483 573.3841974310924 256.67961437372634 540.4708560209681 229.14310544118626 484.73687870916024C201.6065965086462 429.0029013973523 200.97831800929544 375.6530657417452 227.19466101874457 319.2860637778666C253.4110040281937 262.91906181398815 294.61605720105945 229.0259461210586 354.9815518865414 214.17526928254279C415.34704657202326 199.32459244402696 467.57367740730683 210.23232960386184 516.9490355090579 248.0028149529915C566.3243936108088 285.7733003021212 591.2443546417971 332.72904489904545 591.9832707749467 395.47359895836587C592.7221869080964 458.2181530176863 568.9569510481781 509.3151002885256 520.4958329481761 549.1766744377294 "></path><path d="M583.9840110592263 395.6622155321221C584.6921390201614 455.79241317230424 561.917121321073 504.76032097352527 515.4752164752379 542.9609961998455C469.03331162940276 581.1616714261658 419.23224915912 591.8910408351014 361.06286779921766 579.0254566184599C302.8934864393153 566.1598724018185 262.6513403413901 534.6179202171161 236.26218594770586 481.20619195996665C209.87303155402157 427.79446370281744 209.27093132547714 376.6675378661939 234.39492670953257 322.6491609841437C259.518922093588 268.63078410209346 299.00709805091765 236.149881563036 356.8573637911711 221.91798292612498C414.7076295314246 207.68608428921397 464.75815074857144 218.13933240072237 512.0762022627496 254.3360475269717C559.3942537769276 290.53276265322097 583.2758830982912 335.5320178919401 583.9840110592263 395.6622155321221C584.6921390201614 455.79241317230424 561.917121321073 504.76032097352527 515.4752164752379 542.9609961998455 "></path><path d="M575.9846750495606 395.85083210587834C576.662014838281 453.36667332692207 554.8772153000226 500.2055416585249 510.45452370835415 536.7453179619615C466.0318321166858 573.2850942653984 418.39603323206757 583.5479693522063 362.7557554095523 571.2417583623753C307.115477587037 558.9355473725444 268.62299001510854 528.7649844132638 243.38119016028008 477.67550521077317C218.13939030545168 426.5860260082825 217.56346834771352 377.68200999064265 241.5951161063752 326.01225819042077C265.62676386503693 274.34250639019876 303.39806260683054 243.27381700501337 358.7330994018556 229.66069656970717C414.0681361968807 216.04757613440103 461.94254779589073 226.04633519758295 507.2032927224957 260.6692801009518C552.4640376491009 295.29222500432076 575.3073352608401 338.3349908848346 575.9846750495606 395.85083210587834C576.662014838281 453.36667332692207 554.8772153000226 500.2055416585249 510.45452370835415 536.7453179619615 "></path><path d="M567.985369557473 396.03941816205645C568.631921173979 450.9409029639619 547.8373397965503 495.6507318259462 505.43386145904867 530.5296092064996C463.03038312154706 565.4084865870528 417.55984782259327 575.2048673517331 364.448673537465 563.4580295887127C311.3374992523368 551.7111918256923 274.59467020640506 522.9120180918335 250.5002248904325 474.14478794400156C226.40577957445993 425.3775577961695 225.85603588752804 378.69645159751326 248.79533602079601 329.37532487911966C271.73463615406405 280.05419816072595 307.78905768032155 250.39772192941263 360.60886553011824 237.40337969571124C413.4286733799148 224.4090374620099 459.12697536078804 233.9533074768654 502.33041369982016 267.0024821573539C545.5338520388523 300.05165683784236 567.3388179409669 341.1379333601511 567.985369557473 396.03941816205645C568.631921173979 450.9409029639619 547.8373397965503 495.6507318259462 505.43386145904867 530.5296092064996 "></path><path d="M559.9860945829635 396.2280042182347C560.6018580272548 448.5151326010016 540.7974948106562 491.0959219933677 500.4132297273213 524.3139004510375C460.02896464398646 557.5318789087073 416.7236929306971 566.86176535126 366.14162218295587 555.6743008150501C315.55955143521476 544.4868362788401 280.56638091527975 517.0590517704031 257.619290138163 470.61407067722985C234.6721993610463 424.16908958405656 234.14863394492068 379.710893204384 255.99558645279495 332.73839156781855C277.84253896066923 285.7658899312532 312.1800832713907 257.5216268538119 362.48466217595893 245.14606282171536C412.7892410805272 232.77049878961878 456.3114334432636 241.86027975614786 497.45756519472275 273.33568421375594C538.6036969461818 304.811088671364 559.3703311386721 343.9408758354676 559.9860945829635 396.2280042182347C560.6018580272548 448.5151326010016 540.7974948106562 491.0959219933677 500.4132297273213 524.3139004510375 "></path><path d="M551.9867585732977 396.4165902744128C552.5717338453745 446.0893622380414 533.7575887896057 486.5411121607892 495.3925369604376 518.0981916955755C457.0274851312695 549.6552712303617 415.8874770036447 558.5186633507869 367.8345097932905 547.8905720413874C319.7815425829364 537.2624807319879 286.5380305889982 511.2060854489728 264.7382943507373 467.08335341045824C242.93855811247641 422.9606213719436 242.44117096715706 380.7253348112546 263.19577584963764 336.1014582565175C283.9503807321182 291.47758170178037 316.5710478273036 264.64553177821114 364.3603977866434 252.88874594771943C412.1497477459833 241.13196011722772 453.4958304905829 249.76725203543032 492.584655654469 279.668886270158C531.6734808183553 309.5705205048857 551.4017833012208 346.74381831078404 551.9867585732977 396.4165902744128C552.5717338453745 446.0893622380414 533.7575887896057 486.5411121607892 495.3925369604376 518.0981916955755 "></path><path d="M543.9874835987882 396.6052068481689C544.5416706986505 443.66362239265925 526.7177438037116 481.98633284578875 490.37190522871026 511.88251345769163C454.0260666537089 541.7786940695944 415.0513221117485 550.1755918678919 369.5274584387814 540.1068737853029C324.00359476581434 530.038155702714 292.5097412978729 505.35314964512065 271.85735959846784 463.55266666126477C251.20497789906273 421.75218367740877 250.7337690245497 381.73980693570337 270.3960262816365 339.4645554627945C290.0582835387234 297.1893039898857 320.9620734183727 271.7694672201885 366.2361944324841 260.6314595913016C411.51031544659554 249.49345196241472 450.6802885730583 257.6742548322909 487.71180714937157 286.0021188441382C524.7433257256848 314.3299828559854 543.433296498926 349.5467913036786 543.9874835987882 396.6052068481689C544.5416706986505 443.66362239265925 526.7177438037116 481.98633284578875 490.37190522871026 511.88251345769163 "></path><path d="M535.9881475891225 396.793792904347C536.5115465167701 441.23785202969907 519.6778377826613 477.43152301321015 485.35121246182666 505.66680470222946C451.024587140992 533.9020863912489 414.21510618469597 541.8324898674186 371.220346049116 532.3231450116402C328.22558591353607 522.8138001558617 298.4813909715913 499.5001833236904 278.97636381104206 460.02194939449305C259.47133665049284 420.5437154652958 259.0263060467861 382.75424854257403 277.5962156784792 342.8276221514934C296.1661253101724 302.90099576041285 325.3530379742856 278.8933721445877 368.1119300431686 268.3741427173057C410.87082211205166 257.85491329002366 447.8646856203775 265.58122711157336 482.8388976091178 292.3353209005402C517.8131095978581 319.08941468950707 535.4647486614747 352.3497337789951 535.9881475891225 396.793792904347C536.5115465167701 441.23785202969907 519.6778377826613 477.43152301321015 485.35121246182666 505.66680470222946 "></path><path d="M527.9888420970349 396.98242473689237C528.481452852468 438.81212744310596 512.637962279189 472.87675895699886 480.3305502125211 499.4511417231347C448.0231381458532 526.0255244892705 413.3789207752217 533.4894336433127 372.9132641770288 524.5394620143447C332.44760757883586 515.5894903853767 304.45307116288785 493.64726277862724 286.09539854119447 456.4912779040885C267.7377259195011 419.33529302955003 267.3188735866006 383.7687359258118 284.7964355929 346.19073461655955C302.27399759919945 308.6127333073072 329.7440330477766 286.01732284535416 369.9876961714312 276.11687161967694C410.2313592950858 266.2164203939997 445.0491131852749 273.488245167223 477.96601858644226 298.6685687333094C510.8829239876095 323.8488922993959 527.4962313416017 355.1527220306788 527.9888420970349 396.98242473689237C528.481452852468 438.81212744310596 512.637962279189 472.87675895699886 480.3305502125211 499.4511417231347 "></path><path d="M519.9895671225254 397.1709955342814C520.4513897057438 436.3863418213567 505.5981172932949 468.3219338656313 475.3099184807937 493.2354177088836C445.0217196682926 518.148901552136 412.5427658833255 525.1463163840505 374.60621282251964 516.755717981893C336.6696597617138 508.3651195797355 310.42478187176255 487.7942811984078 293.214463788925 452.96054537852785C276.00414570608746 418.1268095586479 275.61147164399324 384.7831622738934 291.99668602489896 349.5537860464694C308.3819004058047 314.32440981904534 334.13505863884575 293.14121251096435 371.86349281727195 283.85953948689195C409.59192699569815 274.5778664628196 442.23357126775045 281.3952021877164 473.09317008134474 305.0017555309224C503.95276889493914 328.6083088741285 519.5277445393068 357.9556492472061 519.9895671225254 397.1709955342814C520.4513897057438 436.3863418213567 505.5981172932949 468.3219338656313 475.3099184807937 493.2354177088836 "></path><path d="M511.99023111285953 397.3595815904595C512.4212655238636 433.96057145839643 498.55821127224453 463.7671240330527 470.2892257139101 487.0197089534215C442.0202401555757 510.27229387379043 411.7065499562731 516.8032143835774 376.2991004328543 508.9719892082303C340.8916509094355 501.14076403288334 316.396431545481 481.94131487697746 300.3334680014993 449.42982811175625C284.2705044575176 416.91834134653493 283.90400866622963 385.7976038807641 299.1968754217416 352.9168527351683C314.4897421772536 320.0361015895725 338.52602319475864 300.2651174353636 373.7392284279564 291.60222261289607C408.95243366115415 282.9393277904285 439.41796831506963 289.3021744669988 468.2202605410911 311.3349575873245C497.02255276711253 333.3677407076501 511.5591967018556 360.7585917225226 511.99023111285953 397.3595815904595C512.4212655238636 433.96057145839643 498.55821127224453 463.7671240330527 470.2892257139101 487.0197089534215 "></path><path d="M503.99095613835004 397.5482134230048C504.3912023771395 431.5348468718034 491.51836628635033 459.2123599768413 465.26859398218267 480.80404597432675C439.018821678015 502.395731971812 410.8703950643769 508.46015815947135 377.9920490783452 501.1883062109349C345.1137030923134 493.91645426239836 322.3681422543557 476.0883943319144 307.4525332492298 445.8991566213517C292.5369242441039 415.7099189107891 292.19660672362227 386.8120912640019 306.39712585374053 356.2799652002344C320.59764498385886 325.7478391364669 342.9170487858278 307.38906813613005 375.61502507379714 299.3449515152673C408.3130013617665 291.30083489440455 436.6024263975452 297.20919252264844 463.34741203599356 317.6682054200937C490.09239767444205 338.12721831753896 503.5907098995607 363.56157997420627 503.99095613835004 397.5482134230048C504.3912023771395 431.5348468718034 491.51836628635033 459.2123599768413 465.26859398218267 480.80404597432675 "></path><path d="M495.9916506462624 397.73679947918293C496.3611087128372 429.10907650884315 484.4784907828781 454.6575501442628 460.2479317328771 474.5883372188647C436.0173726828762 494.5191242934666 410.0342096549026 500.11705615899814 379.6849672062579 493.4045774372722C349.3357247576132 486.6920987155462 328.3398224456522 470.23542801048404 314.57156797938217 442.3684393545801C300.80331351311213 414.50145069867614 300.4891742634368 387.8265328708726 313.59734576816135 359.6430318889333C326.7055172728859 331.4595309069941 347.3080438593188 314.5129730605293 377.49079120205977 307.0876346412714C407.6735385448007 299.6622962220135 433.7868539624425 305.1161648019309 458.474533013318 324.00140747649573C483.16221206419345 342.8866501510606 495.62219257968763 366.3645224495227 495.9916506462624 397.73679947918293C496.3611087128372 429.10907650884315 484.4784907828781 454.6575501442628 460.2479317328771 474.5883372188647 "></path><path d="M487.9923451541748 397.92541605293917C488.33101504853505 426.68333666346103 477.4386152794059 450.10277082926245 455.2272694835716 468.37265898098076C433.0159236877374 486.6425471326992 409.1980242454283 491.77398467610317 381.3778853341707 485.62087918118766C353.557746422913 479.46777368627227 334.3115026369488 464.3824922066319 321.6906027095346 438.8377526053866C309.0697027821204 413.29301300414124 308.7817418032513 388.8410049953213 320.79756568258216 363.0061290952104C332.813389561913 337.1712531950994 351.6990389328098 321.6369085025067 379.36655733032234 314.8303482848536C407.0340757278349 308.0237880672005 430.9712815273399 313.0231675987915 453.6016539906424 330.3346400504759C476.23202645394497 347.64611250216035 487.6536752598146 369.1674954424173 487.9923451541748 397.92541605293917C488.33101504853505 426.68333666346103 477.4386152794059 450.10277082926245 455.2272694835716 468.37265898098076 "></path><path d="M479.9930396620872 398.11400210911734C480.3009213842329 424.2575663005008 470.39873977593356 445.54796099668386 450.20660723426613 462.1569502255188C430.0144746925987 478.76593945435366 408.361838835954 483.4308826756301 383.0708034620834 477.8371504075251C357.77976808821285 472.2434181394201 340.28318282824534 458.52952588520156 328.809637439687 435.3070353386149C317.3360920511286 412.0845447920283 317.0743093430658 389.855446602192 327.9977855970029 366.3691957839093C338.9212618509401 342.88294496562656 356.0900340063008 328.76081342690594 381.2423234585849 322.57303141085765C406.39461291086906 316.3852493948094 428.15570909223726 320.93013987807393 448.72877496796684 336.66784210687797C469.30184084369637 352.405544335682 479.6851579399415 371.97043791773376 479.9930396620872 398.11400210911734C480.3009213842329 424.2575663005008 470.39873977593356 445.54796099668386 450.20660723426613 462.1569502255188 "></path><path d="M471.99370365242146 398.3025881652954C472.2707972023526 421.83179593754056 463.35883375488316 440.9931511641053 445.1859144673825 455.94124147005675C427.0129951798818 470.88933177600813 407.5256229089016 475.08778067515686 384.76369107241806 470.0534216338624C362.0017592359345 465.01906259256793 346.2548325019638 452.67655956377126 335.92864165226126 431.7763180718433C325.60245080255874 410.8760765799153 325.3668463653022 390.86988820906265 335.1979749938456 369.7322624726082C345.0291036223891 348.59463673615375 360.4809985622137 335.8847183513052 383.1180590692694 330.3157145368617C405.7551195763251 324.7467107224183 425.3401061395565 328.8371121573564 443.8558654277131 343.00104416328C462.37162471586976 357.16497616920367 471.71661010249034 374.7733803930503 471.99370365242146 398.3025881652954C472.2707972023526 421.83179593754056 463.35883375488316 440.9931511641053 445.1859144673825 455.94124147005675 "></path><path d="M463.9944134191229 398.4912047390516C464.2407187968395 419.40605609215845 456.31897351019995 436.4383718491049 440.165267476866 449.7255632321728C424.01156144353206 463.01275461524074 406.6894527582163 466.74470919226184 386.45662445911984 462.26972337777784C366.22379616002337 457.79473756329384 352.2265279520494 446.8236237599191 343.04769164120273 428.24563132264973C333.86885533035604 409.6676388853805 333.65942916390577 391.8843603335114 342.3982101670555 373.09535967888525C351.1369911702052 354.30635902425905 364.8720088944938 343.0086537932826 384.9938404563211 338.05842818044397C405.11567201814836 333.10820256760536 422.5245489632429 336.74411495421697 438.9830016638266 349.3342767372602C455.4414543644102 361.9244385203034 463.74810804140634 377.57635338594486 463.9944134191229 398.4912047390516C464.2407187968395 419.40605609215845 456.31897351019995 436.4383718491049 440.165267476866 449.7255632321728 "></path><path d="M455.9951231858243 398.67980605401885C456.2106403913263 416.9803009879873 449.2791132655168 431.8835772753154 435.1446204863496 443.5098697354998C421.0101277071824 455.1361621956843 405.85328260753107 458.40162245057775 388.1495578458217 454.4860098629042C370.4458330841123 450.57039727523073 358.198223402135 440.9706726972778 350.16674163014414 424.7149293146672C342.1352598581533 408.4591859320565 341.95201196250935 392.8988171991711 349.59844534026536 376.4584416263732C357.24487871802137 360.01806605357535 369.26301922677385 350.1325739764709 386.8696218433727 345.8011265652371C404.4762244599716 341.4696791540033 419.70899178692935 344.6511024922885 434.11013789994007 355.6674940524513C448.5112840129508 366.6838856126141 455.77960598032234 380.3793111200504 455.9951231858243 398.67980605401885C456.2106403913263 416.9803009879873 449.2791132655168 431.8835772753154 435.1446204863496 443.5098697354998 "></path><path d="M447.99583295252575 398.86839211019696C448.18056198581314 414.55453062502704 442.2392530208336 427.3287674427369 430.12397349583307 437.2941609800378C418.0086939708326 447.25955451733876 405.01711245684584 450.05852045010454 389.84249123252346 446.7022810892416C374.66787000820113 443.34604172837857 364.16991885222063 435.1177063758475 357.2857916190856 421.1842120478955C350.4016643859506 407.2507177199435 350.2445947611129 393.91325880604177 356.7986805134752 379.82150831507215C363.3527662658375 365.72975782410253 373.6540295590539 357.25647890087015 388.7454032304244 353.54380969124117C403.83677690179485 349.8311404816122 416.89343461061577 352.55807477157094 429.23727413605354 362.00069610885333C441.58111366149126 371.4433174461358 447.81110391923835 383.18225359536683 447.99583295252575 398.86839211019696C448.18056198581314 414.55453062502704 442.2392530208336 427.3287674427369 430.12397349583307 437.2941609800378 "></path><path d="M439.99652746043813 399.05699342516414C440.15046832151097 412.12877552085587 435.1993775173613 422.7739728689474 425.1033112465276 431.0784674833649C415.0072449756939 439.3829620977823 404.18092704737154 441.7154337084205 391.53540936043623 438.918567574368C378.8898916735009 436.1217014403155 370.1415990435172 429.26475531320625 364.404826349238 417.65351003991293C358.66805365495884 406.0422647666196 358.53716230092743 394.92771567170143 363.998900427896 383.1845902625601C369.4606385548646 371.4414648534188 378.04502463254494 364.3803990840584 390.621169358687 361.2865080760343C403.19731408482903 358.1926170680102 414.07786217551313 360.46506230964246 424.36439511337795 368.33391342404445C434.6509280512427 376.20276453844644 439.8425865993653 385.98521132947235 439.99652746043813 399.05699342516414C440.15046832151097 412.12877552085587 435.1993775173613 422.7739728689474 425.1033112465276 431.0784674833649 "></path><path d="M431.99720670956145 399.2455947401313C432.12035939841974 409.7030204166847 428.1594867551 418.2191782951579 420.082633738433 424.8627739866919C412.00578072176603 431.50636967822584 403.3447263791082 433.37234696673636 393.22831222955995 431.1348540594944C383.1118980800117 428.8973611522524 376.1132639760247 423.411804250565 371.52384582060137 414.12280803193033C366.934427665178 404.8338118132957 366.8297145819529 395.94217253736116 371.19910508352774 386.54767221004806C375.5684955851026 377.153171882735 382.4360044472469 371.50431926724673 392.49692022816055 369.0292064608274C402.5578360090742 366.5540936544081 411.2622744816215 368.3720498477139 419.4915008319133 374.6671307392356C427.7207271822051 380.96221163075717 431.87405402070317 388.78816906357787 431.99720670956145 399.2455947401313C432.12035939841974 409.7030204166847 428.1594867551 418.2191782951579 420.082633738433 424.8627739866919 "></path><path d="M423.9979164762629 399.43421131388754C424.09028099290657 407.2772805713026 421.11962651041677 413.6643989801575 415.06198674791654 418.64709574880794C409.0043469854163 423.62979251745844 402.5085562284229 425.02927548384133 394.92124561626173 423.3511558034098C387.33393500410057 421.6730361229784 382.08495942611034 417.55886844671284 378.64289580954284 410.5921212827368C375.2008321929753 403.6253741187608 375.12229738055646 396.95664466180995 378.3993402567376 389.91076941632514C381.6763831329188 382.86489417084033 386.82701477952696 378.6282547092241 394.3727016152122 376.7719201044096C401.91838845089745 374.9155854995952 408.4467173053079 376.2790526445745 414.61863706802677 381.00036331321576C420.79055683074563 385.72167398185695 423.9055519596192 391.59114205647245 423.9979164762629 399.43421131388754C424.09028099290657 407.2772805713026 421.11962651041677 413.6643989801575 415.06198674791654 418.64709574880794 "></path><path d="M415.99861098417523 399.62279737006565C416.0601873286044 404.85151020834235 414.07975100694455 409.10958914757896 410.04132449861106 412.43138699334594C406.0028979902776 415.7531848391129 401.6723708189486 416.6861734833682 396.6141637441745 415.5674270297472C391.55595666940036 414.4486805761262 388.05663961740686 411.7059021252825 385.7619305396952 407.0614040159652C383.4672214619835 402.41690590664786 383.414864920371 397.9710862686806 385.5995601711584 393.27383610502403C387.78425542194583 388.5765859413675 391.218009853018 385.75215963362336 396.2484677434748 384.51460323041374C401.27892563393164 383.27704682720406 405.6311448702053 384.18602492385696 409.7457580453512 387.33356536961776C413.8603712204971 390.4811058153786 415.9370346397461 394.39408453178896 415.99861098417523 399.62279737006565C416.0601873286044 404.85151020834235 414.07975100694455 409.10958914757896 410.04132449861106 412.43138699334594 "></path><path d="M407.9993054920876 399.8113986850328C408.03009366430217 402.4257551041712 407.0398755034723 404.5547945737895 405.02066224930553 406.215693496673C403.0014489951388 407.87659241955646 400.8361854094743 408.3430867416841 398.3070818720872 407.7837135148736C395.7779783347002 407.2243402880631 394.02831980870343 405.85295106264124 392.8809652698476 403.5307020079826C391.73361073099176 401.2084529533239 391.7074324601855 398.9855431343403 392.7997800855792 396.63691805251204C393.89212771097294 394.28829297068376 395.609004926509 392.8760798168117 398.1242338717374 392.25730161520687C400.6394628169658 391.63852341360206 402.81557243510264 392.0930124619285 404.8728790226756 393.6667826848089C406.93018561024854 395.2405529076893 407.96851731987306 397.1970422658945 407.9993054920876 399.8113986850328C408.03009366430217 402.4257551041712 407.0398755034723 404.5547945737895 405.02066224930553 406.215693496673 "></path></g></svg>