<svg xmlns="http://www.w3.org/2000/svg" version="1.1" xmlns:xlink="http://www.w3.org/1999/xlink" xmlns:svgjs="http://svgjs.dev/svgjs" viewBox="0 0 800 800" width="800" height="800"><g transform="scale(1.3) rotate(170) translate(0 3) skewX(-2) skewY(-2)" transform-origin="400 400"><rect width="1600" height="1600" x="-400" y="-400" fill="url(#rrreplicate-pattern1)"></rect><rect width="1600" height="1600" x="-400" y="-400" fill="url(#rrreplicate-pattern2)"></rect><rect width="1600" height="1600" x="-400" y="-400" fill="url(#rrreplicate-pattern3)"></rect></g><defs><pattern id="rrreplicate-pattern1" width="168" height="168" patternUnits="userSpaceOnUse" patternTransform="rotate(61)" stroke-width="2" fill="none" stroke="#331800" stroke-opacity="0.48">
      <line x1="21" y1="0" x2="21" y2="168"></line><line x1="63" y1="0" x2="63" y2="168"></line><line x1="105" y1="0" x2="105" y2="168"></line><line x1="147" y1="0" x2="147" y2="168"></line>
      </pattern><pattern id="rrreplicate-pattern2" width="168" height="168" patternUnits="userSpaceOnUse" patternTransform="rotate(61)" stroke-opacity="0.67" stroke-width="2" fill="none" stroke="#6b680d">
      <line x1="14" y1="0" x2="14" y2="168"></line><line x1="42" y1="0" x2="42" y2="168"></line><line x1="70" y1="0" x2="70" y2="168"></line><line x1="98" y1="0" x2="98" y2="168"></line><line x1="126" y1="0" x2="126" y2="168"></line><line x1="154" y1="0" x2="154" y2="168"></line>
      </pattern><pattern id="rrreplicate-pattern3" width="168" height="168" patternUnits="userSpaceOnUse" patternTransform="rotate(59)" stroke-opacity="1" stroke-width="1.8" fill="none" stroke="#7c2301">
      <line x1="21" y1="0" x2="21" y2="168"></line><line x1="63" y1="0" x2="63" y2="168"></line><line x1="105" y1="0" x2="105" y2="168"></line><line x1="147" y1="0" x2="147" y2="168"></line>
      </pattern></defs></svg>